<mxfile host="app.diagrams.net" modified="2021-04-12T13:31:19.376Z" agent="5.0 (Macintosh; Intel Mac OS X 10_13_4) AppleWebKit/537.36 (KHTML, like Gecko) Chrome/89.0.4389.114 Safari/537.36" etag="EL4LwVkm_eKErTWgFPkl" version="14.5.10" type="github">
  <diagram id="1mvYs6pqMQ_OZy2j_sPx" name="Page-1">
    <mxGraphModel dx="859" dy="2323" grid="1" gridSize="10" guides="1" tooltips="1" connect="1" arrows="1" fold="1" page="1" pageScale="1" pageWidth="827" pageHeight="1169" math="0" shadow="0">
      <root>
        <mxCell id="0" />
        <mxCell id="1" parent="0" />
        <mxCell id="tFkAhirwE9vBxg9qYViA-6" value="" style="rounded=0;whiteSpace=wrap;html=1;fillColor=none;" parent="1" vertex="1">
          <mxGeometry x="50" y="105" width="460" height="290" as="geometry" />
        </mxCell>
        <mxCell id="tFkAhirwE9vBxg9qYViA-1" value="User" style="ellipse;shape=cloud;whiteSpace=wrap;html=1;fillColor=#dae8fc;strokeColor=#6c8ebf;" parent="1" vertex="1">
          <mxGeometry x="90" y="210" width="120" height="80" as="geometry" />
        </mxCell>
        <mxCell id="tFkAhirwE9vBxg9qYViA-2" value="Books" style="ellipse;shape=cloud;whiteSpace=wrap;html=1;fillColor=#dae8fc;strokeColor=#6c8ebf;" parent="1" vertex="1">
          <mxGeometry x="220" y="210" width="120" height="80" as="geometry" />
        </mxCell>
        <mxCell id="tFkAhirwE9vBxg9qYViA-3" value="Author" style="ellipse;shape=cloud;whiteSpace=wrap;html=1;fillColor=#dae8fc;strokeColor=#6c8ebf;" parent="1" vertex="1">
          <mxGeometry x="350" y="210" width="120" height="80" as="geometry" />
        </mxCell>
        <mxCell id="tFkAhirwE9vBxg9qYViA-4" value="Actor" style="shape=umlActor;verticalLabelPosition=bottom;verticalAlign=top;html=1;outlineConnect=0;" parent="1" vertex="1">
          <mxGeometry x="265" y="310" width="30" height="60" as="geometry" />
        </mxCell>
        <mxCell id="tFkAhirwE9vBxg9qYViA-5" value="Genre" style="ellipse;shape=cloud;whiteSpace=wrap;html=1;fillColor=#dae8fc;strokeColor=#6c8ebf;" parent="1" vertex="1">
          <mxGeometry x="280" y="130" width="120" height="80" as="geometry" />
        </mxCell>
        <mxCell id="tFkAhirwE9vBxg9qYViA-7" value="Genre" style="whiteSpace=wrap;html=1;align=center;fillColor=#dae8fc;strokeColor=#6c8ebf;" parent="1" vertex="1">
          <mxGeometry x="80" y="820" width="100" height="40" as="geometry" />
        </mxCell>
        <mxCell id="tFkAhirwE9vBxg9qYViA-8" value="has" style="shape=rhombus;perimeter=rhombusPerimeter;whiteSpace=wrap;html=1;align=center;fillColor=#fff2cc;strokeColor=#d6b656;" parent="1" vertex="1">
          <mxGeometry x="220" y="810" width="120" height="60" as="geometry" />
        </mxCell>
        <mxCell id="tFkAhirwE9vBxg9qYViA-9" value="Book" style="whiteSpace=wrap;html=1;align=center;fillColor=#dae8fc;strokeColor=#6c8ebf;" parent="1" vertex="1">
          <mxGeometry x="370" y="820" width="100" height="40" as="geometry" />
        </mxCell>
        <mxCell id="tFkAhirwE9vBxg9qYViA-10" value="Author" style="whiteSpace=wrap;html=1;align=center;fillColor=#dae8fc;strokeColor=#6c8ebf;" parent="1" vertex="1">
          <mxGeometry x="320" y="1020" width="100" height="60" as="geometry" />
        </mxCell>
        <mxCell id="tFkAhirwE9vBxg9qYViA-11" value="User" style="whiteSpace=wrap;html=1;align=center;fillColor=#dae8fc;strokeColor=#6c8ebf;direction=east;" parent="1" vertex="1">
          <mxGeometry x="600" y="930" width="100" height="70" as="geometry" />
        </mxCell>
        <mxCell id="tFkAhirwE9vBxg9qYViA-16" value="" style="edgeStyle=entityRelationEdgeStyle;fontSize=12;html=1;endArrow=ERmandOne;exitX=1;exitY=0.5;exitDx=0;exitDy=0;entryX=0;entryY=0.5;entryDx=0;entryDy=0;startArrow=ERoneToMany;startFill=0;" parent="1" source="tFkAhirwE9vBxg9qYViA-8" target="tFkAhirwE9vBxg9qYViA-9" edge="1">
          <mxGeometry width="100" height="100" relative="1" as="geometry">
            <mxPoint x="410" y="800" as="sourcePoint" />
            <mxPoint x="510" y="700" as="targetPoint" />
          </mxGeometry>
        </mxCell>
        <mxCell id="tFkAhirwE9vBxg9qYViA-17" value="" style="edgeStyle=entityRelationEdgeStyle;fontSize=12;html=1;endArrow=ERmandOne;exitX=0;exitY=0.5;exitDx=0;exitDy=0;startArrow=ERoneToMany;startFill=0;endFill=0;" parent="1" source="tFkAhirwE9vBxg9qYViA-8" target="tFkAhirwE9vBxg9qYViA-7" edge="1">
          <mxGeometry width="100" height="100" relative="1" as="geometry">
            <mxPoint x="270" y="830" as="sourcePoint" />
            <mxPoint x="510" y="700" as="targetPoint" />
          </mxGeometry>
        </mxCell>
        <mxCell id="tFkAhirwE9vBxg9qYViA-18" value="wrote" style="shape=rhombus;perimeter=rhombusPerimeter;whiteSpace=wrap;html=1;align=center;fillColor=#fff2cc;strokeColor=#d6b656;" parent="1" vertex="1">
          <mxGeometry x="320" y="935" width="120" height="60" as="geometry" />
        </mxCell>
        <mxCell id="tFkAhirwE9vBxg9qYViA-19" value="" style="fontSize=12;html=1;endArrow=ERoneToMany;entryX=0.5;entryY=0;entryDx=0;entryDy=0;exitX=0.5;exitY=1;exitDx=0;exitDy=0;endFill=0;" parent="1" source="tFkAhirwE9vBxg9qYViA-18" target="tFkAhirwE9vBxg9qYViA-10" edge="1">
          <mxGeometry width="100" height="100" relative="1" as="geometry">
            <mxPoint x="410" y="800" as="sourcePoint" />
            <mxPoint x="510" y="700" as="targetPoint" />
          </mxGeometry>
        </mxCell>
        <mxCell id="tFkAhirwE9vBxg9qYViA-22" value="" style="fontSize=12;html=1;endArrow=ERoneToMany;entryX=0.5;entryY=1;entryDx=0;entryDy=0;exitX=0.5;exitY=0;exitDx=0;exitDy=0;" parent="1" source="tFkAhirwE9vBxg9qYViA-18" target="tFkAhirwE9vBxg9qYViA-9" edge="1">
          <mxGeometry width="100" height="100" relative="1" as="geometry">
            <mxPoint x="580" y="790" as="sourcePoint" />
            <mxPoint x="680" y="690" as="targetPoint" />
          </mxGeometry>
        </mxCell>
        <mxCell id="tFkAhirwE9vBxg9qYViA-23" value="borrows" style="shape=rhombus;perimeter=rhombusPerimeter;whiteSpace=wrap;html=1;align=center;fillColor=#fff2cc;strokeColor=#d6b656;" parent="1" vertex="1">
          <mxGeometry x="590" y="810" width="120" height="60" as="geometry" />
        </mxCell>
        <mxCell id="tFkAhirwE9vBxg9qYViA-24" value="" style="fontSize=12;html=1;endArrow=ERzeroToMany;endFill=1;entryX=0.5;entryY=0;entryDx=0;entryDy=0;exitX=0.5;exitY=1;exitDx=0;exitDy=0;" parent="1" source="tFkAhirwE9vBxg9qYViA-23" target="tFkAhirwE9vBxg9qYViA-11" edge="1">
          <mxGeometry width="100" height="100" relative="1" as="geometry">
            <mxPoint x="580" y="790" as="sourcePoint" />
            <mxPoint x="680" y="690" as="targetPoint" />
          </mxGeometry>
        </mxCell>
        <mxCell id="tFkAhirwE9vBxg9qYViA-26" value="" style="fontSize=12;html=1;endArrow=ERoneToMany;endFill=0;entryX=1;entryY=0.5;entryDx=0;entryDy=0;exitX=0;exitY=0.5;exitDx=0;exitDy=0;" parent="1" source="tFkAhirwE9vBxg9qYViA-23" target="tFkAhirwE9vBxg9qYViA-9" edge="1">
          <mxGeometry width="100" height="100" relative="1" as="geometry">
            <mxPoint x="580" y="790" as="sourcePoint" />
            <mxPoint x="680" y="690" as="targetPoint" />
          </mxGeometry>
        </mxCell>
        <mxCell id="tFkAhirwE9vBxg9qYViA-27" value="searchs" style="shape=rhombus;perimeter=rhombusPerimeter;whiteSpace=wrap;html=1;align=center;fillColor=#f8cecc;strokeColor=#b85450;" parent="1" vertex="1">
          <mxGeometry x="50" y="1250" width="120" height="60" as="geometry" />
        </mxCell>
        <mxCell id="tFkAhirwE9vBxg9qYViA-28" value="searchs" style="shape=rhombus;perimeter=rhombusPerimeter;whiteSpace=wrap;html=1;align=center;fillColor=#f8cecc;strokeColor=#b85450;direction=west;" parent="1" vertex="1">
          <mxGeometry x="466" y="1020" width="120" height="60" as="geometry" />
        </mxCell>
        <mxCell id="tFkAhirwE9vBxg9qYViA-29" value="" style="edgeStyle=orthogonalEdgeStyle;fontSize=12;html=1;endArrow=ERzeroToMany;endFill=1;entryX=0;entryY=0.5;entryDx=0;entryDy=0;exitX=0;exitY=0.5;exitDx=0;exitDy=0;fillColor=#f8cecc;strokeColor=#b85450;" parent="1" source="tFkAhirwE9vBxg9qYViA-28" target="tFkAhirwE9vBxg9qYViA-11" edge="1">
          <mxGeometry width="100" height="100" relative="1" as="geometry">
            <mxPoint x="410" y="790" as="sourcePoint" />
            <mxPoint x="510" y="690" as="targetPoint" />
          </mxGeometry>
        </mxCell>
        <mxCell id="tFkAhirwE9vBxg9qYViA-30" value="" style="edgeStyle=orthogonalEdgeStyle;fontSize=12;html=1;endArrow=ERoneToMany;entryX=1;entryY=0.5;entryDx=0;entryDy=0;exitX=1;exitY=0.5;exitDx=0;exitDy=0;fillColor=#f8cecc;strokeColor=#b85450;" parent="1" source="tFkAhirwE9vBxg9qYViA-28" target="tFkAhirwE9vBxg9qYViA-10" edge="1">
          <mxGeometry width="100" height="100" relative="1" as="geometry">
            <mxPoint x="460" y="1100" as="sourcePoint" />
            <mxPoint x="510" y="780" as="targetPoint" />
          </mxGeometry>
        </mxCell>
        <mxCell id="tFkAhirwE9vBxg9qYViA-31" value="" style="edgeStyle=orthogonalEdgeStyle;fontSize=12;html=1;endArrow=ERzeroToMany;endFill=1;entryX=0.5;entryY=1;entryDx=0;entryDy=0;exitX=1;exitY=0.5;exitDx=0;exitDy=0;fillColor=#f8cecc;strokeColor=#b85450;" parent="1" source="tFkAhirwE9vBxg9qYViA-27" target="tFkAhirwE9vBxg9qYViA-11" edge="1">
          <mxGeometry width="100" height="100" relative="1" as="geometry">
            <mxPoint x="300" y="1080" as="sourcePoint" />
            <mxPoint x="250" y="1020" as="targetPoint" />
          </mxGeometry>
        </mxCell>
        <mxCell id="tFkAhirwE9vBxg9qYViA-32" value="" style="fontSize=12;html=1;endArrow=ERoneToMany;entryX=0.25;entryY=1;entryDx=0;entryDy=0;exitX=0.5;exitY=0;exitDx=0;exitDy=0;fillColor=#f8cecc;strokeColor=#b85450;" parent="1" source="tFkAhirwE9vBxg9qYViA-27" target="tFkAhirwE9vBxg9qYViA-7" edge="1">
          <mxGeometry width="100" height="100" relative="1" as="geometry">
            <mxPoint x="110" y="940" as="sourcePoint" />
            <mxPoint x="140" y="880" as="targetPoint" />
          </mxGeometry>
        </mxCell>
        <mxCell id="tFkAhirwE9vBxg9qYViA-33" value="bookID" style="ellipse;whiteSpace=wrap;html=1;align=center;fontStyle=4;fillColor=#d5e8d4;strokeColor=#82b366;" parent="1" vertex="1">
          <mxGeometry x="266" y="700" width="100" height="40" as="geometry" />
        </mxCell>
        <mxCell id="tFkAhirwE9vBxg9qYViA-34" value="genreID" style="ellipse;whiteSpace=wrap;html=1;align=center;fontStyle=4;fillColor=#d5e8d4;strokeColor=#82b366;" parent="1" vertex="1">
          <mxGeometry x="10" y="770" width="100" height="40" as="geometry" />
        </mxCell>
        <mxCell id="tFkAhirwE9vBxg9qYViA-35" value="AuthorID" style="ellipse;whiteSpace=wrap;html=1;align=center;fontStyle=4;fillColor=#d5e8d4;strokeColor=#82b366;" parent="1" vertex="1">
          <mxGeometry x="210" y="1120" width="100" height="40" as="geometry" />
        </mxCell>
        <mxCell id="tFkAhirwE9vBxg9qYViA-36" value="title" style="ellipse;whiteSpace=wrap;html=1;align=center;fillColor=none;" parent="1" vertex="1">
          <mxGeometry x="370" y="700" width="100" height="40" as="geometry" />
        </mxCell>
        <mxCell id="tFkAhirwE9vBxg9qYViA-37" value="year" style="ellipse;whiteSpace=wrap;html=1;align=center;fillColor=none;" parent="1" vertex="1">
          <mxGeometry x="370" y="600" width="100" height="40" as="geometry" />
        </mxCell>
        <mxCell id="tFkAhirwE9vBxg9qYViA-39" value="name" style="ellipse;whiteSpace=wrap;html=1;align=center;fillColor=none;" parent="1" vertex="1">
          <mxGeometry x="10" y="720" width="100" height="40" as="geometry" />
        </mxCell>
        <mxCell id="tFkAhirwE9vBxg9qYViA-41" value="ISBN" style="ellipse;whiteSpace=wrap;html=1;align=center;fillColor=none;" parent="1" vertex="1">
          <mxGeometry x="266" y="650" width="100" height="40" as="geometry" />
        </mxCell>
        <mxCell id="tFkAhirwE9vBxg9qYViA-42" value="language" style="ellipse;whiteSpace=wrap;html=1;align=center;fillColor=none;" parent="1" vertex="1">
          <mxGeometry x="266" y="600" width="100" height="40" as="geometry" />
        </mxCell>
        <mxCell id="tFkAhirwE9vBxg9qYViA-43" value="version" style="ellipse;whiteSpace=wrap;html=1;align=center;fillColor=none;" parent="1" vertex="1">
          <mxGeometry x="380" y="650" width="100" height="40" as="geometry" />
        </mxCell>
        <mxCell id="tFkAhirwE9vBxg9qYViA-44" value="pages" style="ellipse;whiteSpace=wrap;html=1;align=center;fillColor=none;" parent="1" vertex="1">
          <mxGeometry x="320" y="545" width="100" height="40" as="geometry" />
        </mxCell>
        <mxCell id="tFkAhirwE9vBxg9qYViA-46" value="First_name" style="ellipse;whiteSpace=wrap;html=1;align=center;fillColor=none;" parent="1" vertex="1">
          <mxGeometry x="160" y="1160" width="100" height="40" as="geometry" />
        </mxCell>
        <mxCell id="tFkAhirwE9vBxg9qYViA-47" value="Last_name" style="ellipse;whiteSpace=wrap;html=1;align=center;fillColor=none;" parent="1" vertex="1">
          <mxGeometry x="160" y="1200" width="100" height="40" as="geometry" />
        </mxCell>
        <mxCell id="tFkAhirwE9vBxg9qYViA-48" value="D_o_b" style="ellipse;whiteSpace=wrap;html=1;align=center;fillColor=none;" parent="1" vertex="1">
          <mxGeometry x="260" y="1160" width="100" height="40" as="geometry" />
        </mxCell>
        <mxCell id="tFkAhirwE9vBxg9qYViA-49" value="Location_o_b" style="ellipse;whiteSpace=wrap;html=1;align=center;fillColor=none;" parent="1" vertex="1">
          <mxGeometry x="260" y="1200" width="100" height="40" as="geometry" />
        </mxCell>
        <mxCell id="tFkAhirwE9vBxg9qYViA-51" value="fk_genre_id" style="ellipse;whiteSpace=wrap;html=1;align=center;fontStyle=4;fillColor=#e1d5e7;strokeColor=#9673a6;" parent="1" vertex="1">
          <mxGeometry x="140" y="960" width="100" height="40" as="geometry" />
        </mxCell>
        <mxCell id="tFkAhirwE9vBxg9qYViA-52" value="UserID" style="ellipse;whiteSpace=wrap;html=1;align=center;fontStyle=4;fillColor=#d5e8d4;strokeColor=#82b366;" parent="1" vertex="1">
          <mxGeometry x="710" y="950" width="100" height="40" as="geometry" />
        </mxCell>
        <mxCell id="tFkAhirwE9vBxg9qYViA-53" value="First_name" style="ellipse;whiteSpace=wrap;html=1;align=center;fillColor=none;" parent="1" vertex="1">
          <mxGeometry x="810" y="995" width="100" height="40" as="geometry" />
        </mxCell>
        <mxCell id="tFkAhirwE9vBxg9qYViA-54" value="Last_name" style="ellipse;whiteSpace=wrap;html=1;align=center;fillColor=none;" parent="1" vertex="1">
          <mxGeometry x="810" y="950" width="100" height="40" as="geometry" />
        </mxCell>
        <mxCell id="tFkAhirwE9vBxg9qYViA-55" value="location" style="ellipse;whiteSpace=wrap;html=1;align=center;fillColor=none;" parent="1" vertex="1">
          <mxGeometry x="710" y="995" width="100" height="40" as="geometry" />
        </mxCell>
        <mxCell id="tFkAhirwE9vBxg9qYViA-59" value="Publisher" style="whiteSpace=wrap;html=1;align=center;fillColor=#dae8fc;strokeColor=#6c8ebf;" parent="1" vertex="1">
          <mxGeometry x="756" y="725" width="100" height="40" as="geometry" />
        </mxCell>
        <mxCell id="tFkAhirwE9vBxg9qYViA-60" value="published" style="shape=rhombus;perimeter=rhombusPerimeter;whiteSpace=wrap;html=1;align=center;fillColor=#fff2cc;strokeColor=#d6b656;" parent="1" vertex="1">
          <mxGeometry x="576" y="720" width="120" height="60" as="geometry" />
        </mxCell>
        <mxCell id="tFkAhirwE9vBxg9qYViA-61" value="" style="fontSize=12;html=1;endArrow=ERmandOne;entryX=0.5;entryY=0;entryDx=0;entryDy=0;exitX=0;exitY=0.5;exitDx=0;exitDy=0;" parent="1" source="tFkAhirwE9vBxg9qYViA-60" target="tFkAhirwE9vBxg9qYViA-9" edge="1">
          <mxGeometry width="100" height="100" relative="1" as="geometry">
            <mxPoint x="530" y="700" as="sourcePoint" />
            <mxPoint x="630" y="600" as="targetPoint" />
          </mxGeometry>
        </mxCell>
        <mxCell id="tFkAhirwE9vBxg9qYViA-62" value="" style="fontSize=12;html=1;endArrow=ERoneToMany;exitX=1;exitY=0.5;exitDx=0;exitDy=0;entryX=0;entryY=0.5;entryDx=0;entryDy=0;" parent="1" source="tFkAhirwE9vBxg9qYViA-60" target="tFkAhirwE9vBxg9qYViA-59" edge="1">
          <mxGeometry width="100" height="100" relative="1" as="geometry">
            <mxPoint x="530" y="700" as="sourcePoint" />
            <mxPoint x="720" y="670" as="targetPoint" />
          </mxGeometry>
        </mxCell>
        <mxCell id="tFkAhirwE9vBxg9qYViA-63" value="PublisherID" style="ellipse;whiteSpace=wrap;html=1;align=center;fontStyle=4;fillColor=#d5e8d4;strokeColor=#82b366;" parent="1" vertex="1">
          <mxGeometry x="827" y="675" width="100" height="40" as="geometry" />
        </mxCell>
        <mxCell id="tFkAhirwE9vBxg9qYViA-64" value="Name" style="ellipse;whiteSpace=wrap;html=1;align=center;fillColor=none;" parent="1" vertex="1">
          <mxGeometry x="900" y="620" width="100" height="40" as="geometry" />
        </mxCell>
        <mxCell id="tFkAhirwE9vBxg9qYViA-65" value="Location" style="ellipse;whiteSpace=wrap;html=1;align=center;fillColor=none;" parent="1" vertex="1">
          <mxGeometry x="800" y="620" width="100" height="40" as="geometry" />
        </mxCell>
        <mxCell id="tFkAhirwE9vBxg9qYViA-66" value="writes" style="shape=rhombus;perimeter=rhombusPerimeter;whiteSpace=wrap;html=1;align=center;fillColor=#fff2cc;strokeColor=#d6b656;" parent="1" vertex="1">
          <mxGeometry x="120" y="1020" width="120" height="60" as="geometry" />
        </mxCell>
        <mxCell id="tFkAhirwE9vBxg9qYViA-67" value="" style="edgeStyle=entityRelationEdgeStyle;fontSize=12;html=1;endArrow=ERoneToMany;entryX=0;entryY=0.5;entryDx=0;entryDy=0;exitX=1;exitY=0.5;exitDx=0;exitDy=0;" parent="1" source="tFkAhirwE9vBxg9qYViA-66" target="tFkAhirwE9vBxg9qYViA-10" edge="1">
          <mxGeometry width="100" height="100" relative="1" as="geometry">
            <mxPoint x="410" y="1080" as="sourcePoint" />
            <mxPoint x="510" y="980" as="targetPoint" />
          </mxGeometry>
        </mxCell>
        <mxCell id="tFkAhirwE9vBxg9qYViA-69" value="" style="fontSize=12;html=1;endArrow=ERoneToMany;entryX=0.5;entryY=1;entryDx=0;entryDy=0;exitX=0.5;exitY=0;exitDx=0;exitDy=0;" parent="1" source="tFkAhirwE9vBxg9qYViA-66" target="tFkAhirwE9vBxg9qYViA-7" edge="1">
          <mxGeometry width="100" height="100" relative="1" as="geometry">
            <mxPoint x="230" y="1000" as="sourcePoint" />
            <mxPoint x="330" y="1060" as="targetPoint" />
          </mxGeometry>
        </mxCell>
        <mxCell id="tFkAhirwE9vBxg9qYViA-70" style="edgeStyle=none;rounded=0;orthogonalLoop=1;jettySize=auto;html=1;entryX=0.5;entryY=0;entryDx=0;entryDy=0;endArrow=ERoneToMany;endFill=0;" parent="1" source="tFkAhirwE9vBxg9qYViA-66" target="tFkAhirwE9vBxg9qYViA-66" edge="1">
          <mxGeometry relative="1" as="geometry" />
        </mxCell>
        <mxCell id="tFkAhirwE9vBxg9qYViA-72" value="Book" style="swimlane;childLayout=stackLayout;horizontal=1;startSize=30;horizontalStack=0;rounded=1;fontSize=14;fontStyle=0;strokeWidth=2;resizeParent=0;resizeLast=1;shadow=0;dashed=0;align=center;fillColor=#dae8fc;strokeColor=#6c8ebf;" parent="1" vertex="1">
          <mxGeometry x="105" y="1860" width="160" height="200" as="geometry" />
        </mxCell>
        <mxCell id="tFkAhirwE9vBxg9qYViA-73" value="+BookID:Int&#xa;+ISBN:String&#xa;+title:String&#xa;+year:DateYear&#xa;+language:String&#xa;+pages:Int&#xa;+version:Int&#xa;+publisherID" style="align=left;strokeColor=none;fillColor=none;spacingLeft=4;fontSize=12;verticalAlign=top;resizable=0;rotatable=0;part=1;" parent="tFkAhirwE9vBxg9qYViA-72" vertex="1">
          <mxGeometry y="30" width="160" height="170" as="geometry" />
        </mxCell>
        <mxCell id="tFkAhirwE9vBxg9qYViA-74" value="wrote" style="swimlane;childLayout=stackLayout;horizontal=1;startSize=30;horizontalStack=0;rounded=1;fontSize=14;fontStyle=0;strokeWidth=2;resizeParent=0;resizeLast=1;shadow=0;dashed=0;align=center;fillColor=#fff2cc;strokeColor=#d6b656;" parent="1" vertex="1">
          <mxGeometry x="366" y="1970" width="150" height="90" as="geometry" />
        </mxCell>
        <mxCell id="tFkAhirwE9vBxg9qYViA-75" value="+wrote_ID:Int&#xa;+fk_author_id:Int&#xa;+fk_book_id:Int" style="align=left;strokeColor=none;fillColor=none;spacingLeft=4;fontSize=12;verticalAlign=top;resizable=0;rotatable=0;part=1;" parent="tFkAhirwE9vBxg9qYViA-74" vertex="1">
          <mxGeometry y="30" width="150" height="60" as="geometry" />
        </mxCell>
        <mxCell id="tFkAhirwE9vBxg9qYViA-76" value="Author" style="swimlane;childLayout=stackLayout;horizontal=1;startSize=30;horizontalStack=0;rounded=1;fontSize=14;fontStyle=0;strokeWidth=2;resizeParent=0;resizeLast=1;shadow=0;dashed=0;align=center;fillColor=#dae8fc;strokeColor=#6c8ebf;" parent="1" vertex="1">
          <mxGeometry x="611" y="1960" width="160" height="120" as="geometry" />
        </mxCell>
        <mxCell id="tFkAhirwE9vBxg9qYViA-77" value="+AuthorID:Int&#xa;+DateOfBirth: Date&#xa;" style="align=left;strokeColor=none;fillColor=none;spacingLeft=4;fontSize=12;verticalAlign=top;resizable=0;rotatable=0;part=1;" parent="tFkAhirwE9vBxg9qYViA-76" vertex="1">
          <mxGeometry y="30" width="160" height="90" as="geometry" />
        </mxCell>
        <mxCell id="tFkAhirwE9vBxg9qYViA-79" value="fk_genre_id" style="ellipse;whiteSpace=wrap;html=1;align=center;fontStyle=4;fillColor=#e1d5e7;strokeColor=#9673a6;" parent="1" vertex="1">
          <mxGeometry x="295" y="770" width="100" height="40" as="geometry" />
        </mxCell>
        <mxCell id="tFkAhirwE9vBxg9qYViA-80" value="fk_publisher_id" style="ellipse;whiteSpace=wrap;html=1;align=center;fontStyle=4;fillColor=#e1d5e7;strokeColor=#9673a6;" parent="1" vertex="1">
          <mxGeometry x="430" y="545" width="100" height="40" as="geometry" />
        </mxCell>
        <mxCell id="tFkAhirwE9vBxg9qYViA-81" value="fk_user_id" style="ellipse;whiteSpace=wrap;html=1;align=center;fontStyle=4;fillColor=#e1d5e7;strokeColor=#9673a6;" parent="1" vertex="1">
          <mxGeometry x="530" y="860" width="100" height="40" as="geometry" />
        </mxCell>
        <mxCell id="tFkAhirwE9vBxg9qYViA-82" value="fk_author_id" style="ellipse;whiteSpace=wrap;html=1;align=center;fontStyle=4;fillColor=#e1d5e7;strokeColor=#9673a6;" parent="1" vertex="1">
          <mxGeometry x="270" y="905" width="100" height="40" as="geometry" />
        </mxCell>
        <mxCell id="tFkAhirwE9vBxg9qYViA-83" value="fk_author_id" style="ellipse;whiteSpace=wrap;html=1;align=center;fontStyle=4;fillColor=#e1d5e7;strokeColor=#9673a6;" parent="1" vertex="1">
          <mxGeometry x="1101" y="1250" width="100" height="40" as="geometry" />
        </mxCell>
        <mxCell id="tFkAhirwE9vBxg9qYViA-84" value="fk_book_id" style="ellipse;whiteSpace=wrap;html=1;align=center;fontStyle=4;fillColor=#e1d5e7;strokeColor=#9673a6;" parent="1" vertex="1">
          <mxGeometry x="656" y="650" width="100" height="40" as="geometry" />
        </mxCell>
        <mxCell id="tFkAhirwE9vBxg9qYViA-85" value="fk_book_id" style="ellipse;whiteSpace=wrap;html=1;align=center;fontStyle=4;fillColor=#e1d5e7;strokeColor=#9673a6;" parent="1" vertex="1">
          <mxGeometry x="180" y="770" width="100" height="40" as="geometry" />
        </mxCell>
        <mxCell id="tFkAhirwE9vBxg9qYViA-86" value="fk_author_id" style="ellipse;whiteSpace=wrap;html=1;align=center;fontStyle=4;fillColor=#e1d5e7;strokeColor=#9673a6;" parent="1" vertex="1">
          <mxGeometry x="195" y="995" width="100" height="40" as="geometry" />
        </mxCell>
        <mxCell id="tFkAhirwE9vBxg9qYViA-87" value="fk_book_id" style="ellipse;whiteSpace=wrap;html=1;align=center;fontStyle=4;fillColor=#e1d5e7;strokeColor=#9673a6;" parent="1" vertex="1">
          <mxGeometry x="400" y="910" width="100" height="40" as="geometry" />
        </mxCell>
        <mxCell id="tFkAhirwE9vBxg9qYViA-88" value="fk_user_id" style="ellipse;whiteSpace=wrap;html=1;align=center;fontStyle=4;fillColor=#f8cecc;strokeColor=#b85450;" parent="1" vertex="1">
          <mxGeometry x="530" y="1074" width="100" height="40" as="geometry" />
        </mxCell>
        <mxCell id="tFkAhirwE9vBxg9qYViA-89" value="fk_publisher_id" style="ellipse;whiteSpace=wrap;html=1;align=center;fontStyle=4;fillColor=#e1d5e7;strokeColor=#9673a6;" parent="1" vertex="1">
          <mxGeometry x="990" y="1250" width="100" height="40" as="geometry" />
        </mxCell>
        <mxCell id="tFkAhirwE9vBxg9qYViA-90" value="fk_genre_id" style="ellipse;whiteSpace=wrap;html=1;align=center;fontStyle=4;fillColor=#f8cecc;strokeColor=#b85450;" parent="1" vertex="1">
          <mxGeometry x="110" y="1310" width="100" height="40" as="geometry" />
        </mxCell>
        <mxCell id="tFkAhirwE9vBxg9qYViA-91" value="fk_author_id" style="ellipse;whiteSpace=wrap;html=1;align=center;fontStyle=4;fillColor=#f8cecc;strokeColor=#b85450;" parent="1" vertex="1">
          <mxGeometry x="430" y="1074" width="100" height="40" as="geometry" />
        </mxCell>
        <mxCell id="tFkAhirwE9vBxg9qYViA-92" value="fk_book_id" style="ellipse;whiteSpace=wrap;html=1;align=center;fontStyle=4;fillColor=#e1d5e7;strokeColor=#9673a6;" parent="1" vertex="1">
          <mxGeometry x="680" y="860" width="100" height="40" as="geometry" />
        </mxCell>
        <mxCell id="tFkAhirwE9vBxg9qYViA-93" value="fk_publisher_id" style="ellipse;whiteSpace=wrap;html=1;align=center;fontStyle=4;fillColor=#f8cecc;strokeColor=#b85450;" parent="1" vertex="1">
          <mxGeometry x="800" y="1100" width="100" height="40" as="geometry" />
        </mxCell>
        <mxCell id="tFkAhirwE9vBxg9qYViA-94" value="works for" style="shape=rhombus;perimeter=rhombusPerimeter;whiteSpace=wrap;html=1;align=center;fillColor=#fff2cc;strokeColor=#d6b656;" parent="1" vertex="1">
          <mxGeometry x="1020" y="1180" width="120" height="60" as="geometry" />
        </mxCell>
        <mxCell id="tFkAhirwE9vBxg9qYViA-95" value="" style="fontSize=12;html=1;endArrow=ERoneToMany;entryX=0.5;entryY=1;entryDx=0;entryDy=0;exitX=0;exitY=0.5;exitDx=0;exitDy=0;edgeStyle=orthogonalEdgeStyle;" parent="1" source="tFkAhirwE9vBxg9qYViA-94" target="tFkAhirwE9vBxg9qYViA-10" edge="1">
          <mxGeometry width="100" height="100" relative="1" as="geometry">
            <mxPoint x="572.5" y="1580" as="sourcePoint" />
            <mxPoint x="567.5" y="1190" as="targetPoint" />
          </mxGeometry>
        </mxCell>
        <mxCell id="tFkAhirwE9vBxg9qYViA-96" value="" style="fontSize=12;html=1;endArrow=ERoneToMany;entryX=1;entryY=0.5;entryDx=0;entryDy=0;exitX=0.5;exitY=0;exitDx=0;exitDy=0;edgeStyle=orthogonalEdgeStyle;" parent="1" source="tFkAhirwE9vBxg9qYViA-94" target="tFkAhirwE9vBxg9qYViA-59" edge="1">
          <mxGeometry width="100" height="100" relative="1" as="geometry">
            <mxPoint x="1480" y="1020" as="sourcePoint" />
            <mxPoint x="740" y="890" as="targetPoint" />
          </mxGeometry>
        </mxCell>
        <mxCell id="tFkAhirwE9vBxg9qYViA-98" value="searchs" style="shape=rhombus;perimeter=rhombusPerimeter;whiteSpace=wrap;html=1;align=center;fillColor=#f8cecc;strokeColor=#b85450;direction=west;" parent="1" vertex="1">
          <mxGeometry x="860" y="1040" width="120" height="60" as="geometry" />
        </mxCell>
        <mxCell id="tFkAhirwE9vBxg9qYViA-99" value="" style="edgeStyle=orthogonalEdgeStyle;fontSize=12;html=1;endArrow=ERzeroToMany;endFill=1;entryX=1;entryY=1;entryDx=0;entryDy=0;exitX=1;exitY=0.5;exitDx=0;exitDy=0;fillColor=#f8cecc;strokeColor=#b85450;" parent="1" source="tFkAhirwE9vBxg9qYViA-98" target="tFkAhirwE9vBxg9qYViA-11" edge="1">
          <mxGeometry width="100" height="100" relative="1" as="geometry">
            <mxPoint x="766" y="1109.93" as="sourcePoint" />
            <mxPoint x="780" y="1024.93" as="targetPoint" />
          </mxGeometry>
        </mxCell>
        <mxCell id="tFkAhirwE9vBxg9qYViA-101" value="" style="edgeStyle=entityRelationEdgeStyle;fontSize=12;html=1;endArrow=ERoneToMany;entryX=1;entryY=1;entryDx=0;entryDy=0;exitX=0;exitY=0.5;exitDx=0;exitDy=0;fillColor=#f8cecc;strokeColor=#b85450;" parent="1" source="tFkAhirwE9vBxg9qYViA-98" target="tFkAhirwE9vBxg9qYViA-59" edge="1">
          <mxGeometry width="100" height="100" relative="1" as="geometry">
            <mxPoint x="690" y="1120" as="sourcePoint" />
            <mxPoint x="790" y="1020" as="targetPoint" />
          </mxGeometry>
        </mxCell>
        <mxCell id="tFkAhirwE9vBxg9qYViA-102" value="fk_user_id" style="ellipse;whiteSpace=wrap;html=1;align=center;fontStyle=4;fillColor=#f8cecc;strokeColor=#b85450;" parent="1" vertex="1">
          <mxGeometry x="10" y="1310" width="100" height="40" as="geometry" />
        </mxCell>
        <mxCell id="tFkAhirwE9vBxg9qYViA-103" value="fk_user_id" style="ellipse;whiteSpace=wrap;html=1;align=center;fontStyle=4;fillColor=#f8cecc;strokeColor=#b85450;" parent="1" vertex="1">
          <mxGeometry x="940" y="1100" width="100" height="40" as="geometry" />
        </mxCell>
        <mxCell id="tFkAhirwE9vBxg9qYViA-105" value="" style="edgeStyle=entityRelationEdgeStyle;fontSize=12;html=1;endArrow=ERone;exitX=0;exitY=0.5;exitDx=0;exitDy=0;startArrow=ERmany;startFill=0;endFill=0;" parent="1" source="tFkAhirwE9vBxg9qYViA-74" target="tFkAhirwE9vBxg9qYViA-73" edge="1">
          <mxGeometry width="100" height="100" relative="1" as="geometry">
            <mxPoint x="250" y="1960" as="sourcePoint" />
            <mxPoint x="650" y="1790" as="targetPoint" />
          </mxGeometry>
        </mxCell>
        <mxCell id="tFkAhirwE9vBxg9qYViA-106" value="" style="edgeStyle=entityRelationEdgeStyle;fontSize=12;html=1;endArrow=ERone;entryX=-0.017;entryY=0.411;entryDx=0;entryDy=0;entryPerimeter=0;endFill=0;startArrow=ERoneToMany;startFill=0;" parent="1" source="tFkAhirwE9vBxg9qYViA-75" target="tFkAhirwE9vBxg9qYViA-77" edge="1">
          <mxGeometry width="100" height="100" relative="1" as="geometry">
            <mxPoint x="560" y="1940" as="sourcePoint" />
            <mxPoint x="660" y="1840" as="targetPoint" />
          </mxGeometry>
        </mxCell>
        <mxCell id="Odih9p4_4u5Rn0RxQKUg-1" value="" style="whiteSpace=wrap;html=1;aspect=fixed;fillColor=none;" vertex="1" parent="1">
          <mxGeometry x="265" y="485" width="270" height="270" as="geometry" />
        </mxCell>
        <mxCell id="Odih9p4_4u5Rn0RxQKUg-2" value="" style="endArrow=none;html=1;exitX=0.5;exitY=0;exitDx=0;exitDy=0;" edge="1" parent="1" source="tFkAhirwE9vBxg9qYViA-9" target="Odih9p4_4u5Rn0RxQKUg-1">
          <mxGeometry width="50" height="50" relative="1" as="geometry">
            <mxPoint x="540" y="790" as="sourcePoint" />
            <mxPoint x="590" y="740" as="targetPoint" />
          </mxGeometry>
        </mxCell>
        <mxCell id="Odih9p4_4u5Rn0RxQKUg-3" value="" style="endArrow=none;html=1;exitX=0.5;exitY=0;exitDx=0;exitDy=0;entryX=0;entryY=1;entryDx=0;entryDy=0;" edge="1" parent="1" source="tFkAhirwE9vBxg9qYViA-81" target="tFkAhirwE9vBxg9qYViA-23">
          <mxGeometry width="50" height="50" relative="1" as="geometry">
            <mxPoint x="540" y="790" as="sourcePoint" />
            <mxPoint x="590" y="740" as="targetPoint" />
          </mxGeometry>
        </mxCell>
        <mxCell id="Odih9p4_4u5Rn0RxQKUg-4" value="" style="endArrow=none;html=1;exitX=0.5;exitY=0;exitDx=0;exitDy=0;entryX=1;entryY=1;entryDx=0;entryDy=0;" edge="1" parent="1" source="tFkAhirwE9vBxg9qYViA-92" target="tFkAhirwE9vBxg9qYViA-23">
          <mxGeometry width="50" height="50" relative="1" as="geometry">
            <mxPoint x="540" y="790" as="sourcePoint" />
            <mxPoint x="590" y="740" as="targetPoint" />
          </mxGeometry>
        </mxCell>
        <mxCell id="Odih9p4_4u5Rn0RxQKUg-5" value="" style="endArrow=none;html=1;exitX=1;exitY=0;exitDx=0;exitDy=0;entryX=0.5;entryY=1;entryDx=0;entryDy=0;" edge="1" parent="1" source="tFkAhirwE9vBxg9qYViA-8" target="tFkAhirwE9vBxg9qYViA-79">
          <mxGeometry width="50" height="50" relative="1" as="geometry">
            <mxPoint x="540" y="790" as="sourcePoint" />
            <mxPoint x="590" y="740" as="targetPoint" />
          </mxGeometry>
        </mxCell>
        <mxCell id="Odih9p4_4u5Rn0RxQKUg-6" value="" style="endArrow=none;html=1;exitX=0;exitY=0;exitDx=0;exitDy=0;entryX=0.5;entryY=1;entryDx=0;entryDy=0;" edge="1" parent="1" source="tFkAhirwE9vBxg9qYViA-8" target="tFkAhirwE9vBxg9qYViA-85">
          <mxGeometry width="50" height="50" relative="1" as="geometry">
            <mxPoint x="540" y="790" as="sourcePoint" />
            <mxPoint x="590" y="740" as="targetPoint" />
          </mxGeometry>
        </mxCell>
        <mxCell id="Odih9p4_4u5Rn0RxQKUg-10" value="" style="endArrow=none;html=1;exitX=0.5;exitY=0;exitDx=0;exitDy=0;entryX=1;entryY=1;entryDx=0;entryDy=0;" edge="1" parent="1" source="tFkAhirwE9vBxg9qYViA-7" target="tFkAhirwE9vBxg9qYViA-34">
          <mxGeometry width="50" height="50" relative="1" as="geometry">
            <mxPoint x="540" y="790" as="sourcePoint" />
            <mxPoint x="590" y="740" as="targetPoint" />
          </mxGeometry>
        </mxCell>
        <mxCell id="Odih9p4_4u5Rn0RxQKUg-11" value="" style="endArrow=none;html=1;exitX=0.5;exitY=0;exitDx=0;exitDy=0;entryX=1;entryY=0.5;entryDx=0;entryDy=0;" edge="1" parent="1" source="tFkAhirwE9vBxg9qYViA-7" target="tFkAhirwE9vBxg9qYViA-39">
          <mxGeometry width="50" height="50" relative="1" as="geometry">
            <mxPoint x="540" y="790" as="sourcePoint" />
            <mxPoint x="590" y="740" as="targetPoint" />
          </mxGeometry>
        </mxCell>
        <mxCell id="Odih9p4_4u5Rn0RxQKUg-14" value="writeID" style="ellipse;whiteSpace=wrap;html=1;align=center;fontStyle=4;fillColor=#d5e8d4;strokeColor=#82b366;" vertex="1" parent="1">
          <mxGeometry x="110" y="1005" width="70" height="20" as="geometry" />
        </mxCell>
        <mxCell id="Odih9p4_4u5Rn0RxQKUg-15" value="end_of_book" style="ellipse;whiteSpace=wrap;html=1;align=center;fillColor=none;" vertex="1" parent="1">
          <mxGeometry x="727" y="820" width="100" height="40" as="geometry" />
        </mxCell>
        <mxCell id="Odih9p4_4u5Rn0RxQKUg-18" value="not a relationship - its solved by a querry or php later on" style="text;html=1;strokeColor=#b85450;fillColor=#f8cecc;align=center;verticalAlign=middle;whiteSpace=wrap;rounded=0;fontSize=17;" vertex="1" parent="1">
          <mxGeometry x="260" y="1300" width="190" height="100" as="geometry" />
        </mxCell>
        <mxCell id="Odih9p4_4u5Rn0RxQKUg-19" value="3 - UML" style="text;html=1;strokeColor=#82b366;fillColor=#d5e8d4;align=center;verticalAlign=middle;whiteSpace=wrap;rounded=0;fontSize=17;" vertex="1" parent="1">
          <mxGeometry x="20" y="1430" width="1110" height="60" as="geometry" />
        </mxCell>
        <mxCell id="Odih9p4_4u5Rn0RxQKUg-20" value="&lt;h2 class=&quot;c20&quot; id=&quot;h.4d34og8&quot; style=&quot;box-sizing: border-box ; margin-top: 0px ; margin-bottom: 0.5rem ; font-family: &amp;#34;arial&amp;#34; ; font-weight: 300 ; line-height: 1.15 ; font-size: 16pt ; padding: 18pt 0pt 6pt ; text-align: left ; border-style: solid ; border-width: 0pt ; border-color: rgb(0 , 0 , 0)&quot;&gt;&lt;span class=&quot;c3 c9&quot; id=&quot;yui_3_17_2_1_1618215658407_44&quot; style=&quot;box-sizing: border-box ; vertical-align: baseline ; font-size: 18pt&quot;&gt;purpose of the database (engage in requirement engineering)&lt;/span&gt;&lt;/h2&gt;" style="text;html=1;strokeColor=#82b366;fillColor=#d5e8d4;align=center;verticalAlign=middle;whiteSpace=wrap;rounded=0;fontSize=17;" vertex="1" parent="1">
          <mxGeometry x="25" width="1110" height="60" as="geometry" />
        </mxCell>
        <mxCell id="Odih9p4_4u5Rn0RxQKUg-21" value="&lt;h2 class=&quot;c20&quot; id=&quot;h.2s8eyo1&quot; style=&quot;box-sizing: border-box ; margin-top: 0px ; margin-bottom: 0.5rem ; font-family: &amp;#34;arial&amp;#34; ; font-weight: 300 ; line-height: 1.15 ; font-size: 16pt ; padding: 18pt 0pt 6pt ; text-align: left ; border-style: solid ; border-width: 0pt ; border-color: rgb(0 , 0 , 0)&quot;&gt;&lt;span class=&quot;c3 c9&quot; id=&quot;yui_3_17_2_1_1618215658407_45&quot; style=&quot;box-sizing: border-box ; vertical-align: baseline ; font-size: 18pt&quot;&gt;Entity-Relationship Model&lt;/span&gt;&lt;/h2&gt;" style="text;html=1;strokeColor=#82b366;fillColor=#d5e8d4;align=center;verticalAlign=middle;whiteSpace=wrap;rounded=0;fontSize=17;" vertex="1" parent="1">
          <mxGeometry x="30" y="410" width="1110" height="60" as="geometry" />
        </mxCell>
        <mxCell id="Odih9p4_4u5Rn0RxQKUg-22" value="has_ID" style="ellipse;whiteSpace=wrap;html=1;align=center;fontStyle=4;fillColor=#d5e8d4;strokeColor=#82b366;" vertex="1" parent="1">
          <mxGeometry x="180" y="750" width="70" height="20" as="geometry" />
        </mxCell>
        <mxCell id="Odih9p4_4u5Rn0RxQKUg-24" value="borrows_ID" style="ellipse;whiteSpace=wrap;html=1;align=center;fontStyle=4;fillColor=#d5e8d4;strokeColor=#82b366;" vertex="1" parent="1">
          <mxGeometry x="576" y="790" width="70" height="20" as="geometry" />
        </mxCell>
        <mxCell id="Odih9p4_4u5Rn0RxQKUg-25" value="published_ID" style="ellipse;whiteSpace=wrap;html=1;align=center;fontStyle=4;fillColor=#d5e8d4;strokeColor=#82b366;" vertex="1" parent="1">
          <mxGeometry x="590" y="700" width="70" height="20" as="geometry" />
        </mxCell>
        <mxCell id="Odih9p4_4u5Rn0RxQKUg-26" value="works_for-ID" style="ellipse;whiteSpace=wrap;html=1;align=center;fontStyle=4;fillColor=#d5e8d4;strokeColor=#82b366;" vertex="1" parent="1">
          <mxGeometry x="1150" y="1200" width="70" height="20" as="geometry" />
        </mxCell>
        <mxCell id="Odih9p4_4u5Rn0RxQKUg-27" value="fk_publisher_id" style="ellipse;whiteSpace=wrap;html=1;align=center;fontStyle=4;fillColor=#e1d5e7;strokeColor=#9673a6;" vertex="1" parent="1">
          <mxGeometry x="550" y="650" width="100" height="40" as="geometry" />
        </mxCell>
        <mxCell id="Odih9p4_4u5Rn0RxQKUg-28" value="" style="endArrow=none;html=1;fontSize=17;entryX=0;entryY=0.5;entryDx=0;entryDy=0;exitX=0.945;exitY=0.462;exitDx=0;exitDy=0;exitPerimeter=0;" edge="1" parent="1" source="tFkAhirwE9vBxg9qYViA-23" target="Odih9p4_4u5Rn0RxQKUg-15">
          <mxGeometry width="50" height="50" relative="1" as="geometry">
            <mxPoint x="650" y="1040" as="sourcePoint" />
            <mxPoint x="700" y="990" as="targetPoint" />
          </mxGeometry>
        </mxCell>
        <mxCell id="Odih9p4_4u5Rn0RxQKUg-29" value="start_of_book" style="ellipse;whiteSpace=wrap;html=1;align=center;fillColor=none;" vertex="1" parent="1">
          <mxGeometry x="700" y="780" width="100" height="40" as="geometry" />
        </mxCell>
        <mxCell id="Odih9p4_4u5Rn0RxQKUg-30" value="" style="endArrow=none;html=1;fontSize=17;entryX=0;entryY=0.5;entryDx=0;entryDy=0;exitX=1;exitY=0;exitDx=0;exitDy=0;" edge="1" parent="1" source="tFkAhirwE9vBxg9qYViA-23" target="Odih9p4_4u5Rn0RxQKUg-29">
          <mxGeometry width="50" height="50" relative="1" as="geometry">
            <mxPoint x="713.4000000000001" y="847.7199999999998" as="sourcePoint" />
            <mxPoint x="737" y="850" as="targetPoint" />
          </mxGeometry>
        </mxCell>
        <mxCell id="Odih9p4_4u5Rn0RxQKUg-32" value="wrote_ID" style="ellipse;whiteSpace=wrap;html=1;align=center;fontStyle=4;fillColor=#d5e8d4;strokeColor=#82b366;" vertex="1" parent="1">
          <mxGeometry x="440" y="960" width="70" height="20" as="geometry" />
        </mxCell>
        <mxCell id="Odih9p4_4u5Rn0RxQKUg-33" value="" style="rounded=0;whiteSpace=wrap;html=1;fontSize=17;fillColor=none;" vertex="1" parent="1">
          <mxGeometry x="152" y="1114" width="214" height="150" as="geometry" />
        </mxCell>
        <mxCell id="Odih9p4_4u5Rn0RxQKUg-34" value="" style="endArrow=none;html=1;fontSize=17;exitX=0.5;exitY=0;exitDx=0;exitDy=0;entryX=0.25;entryY=1;entryDx=0;entryDy=0;" edge="1" parent="1" source="Odih9p4_4u5Rn0RxQKUg-33" target="tFkAhirwE9vBxg9qYViA-10">
          <mxGeometry width="50" height="50" relative="1" as="geometry">
            <mxPoint x="650" y="1040" as="sourcePoint" />
            <mxPoint x="700" y="990" as="targetPoint" />
          </mxGeometry>
        </mxCell>
        <mxCell id="Odih9p4_4u5Rn0RxQKUg-35" value="Publisher" style="ellipse;shape=cloud;whiteSpace=wrap;html=1;fillColor=#dae8fc;strokeColor=#6c8ebf;" vertex="1" parent="1">
          <mxGeometry x="140" y="130" width="120" height="80" as="geometry" />
        </mxCell>
        <mxCell id="Odih9p4_4u5Rn0RxQKUg-36" value="published" style="swimlane;childLayout=stackLayout;horizontal=1;startSize=30;horizontalStack=0;rounded=1;fontSize=14;fontStyle=0;strokeWidth=2;resizeParent=0;resizeLast=1;shadow=0;dashed=0;align=center;fillColor=#fff2cc;strokeColor=#d6b656;" vertex="1" parent="1">
          <mxGeometry x="100" y="1530" width="160" height="120" as="geometry" />
        </mxCell>
        <mxCell id="Odih9p4_4u5Rn0RxQKUg-37" value="+publish_ID:Int&#xa;+fk_publisher_id:Int&#xa;+fk_book_id:Int" style="align=left;strokeColor=none;fillColor=none;spacingLeft=4;fontSize=12;verticalAlign=top;resizable=0;rotatable=0;part=1;" vertex="1" parent="Odih9p4_4u5Rn0RxQKUg-36">
          <mxGeometry y="30" width="160" height="90" as="geometry" />
        </mxCell>
        <mxCell id="Odih9p4_4u5Rn0RxQKUg-38" value="Publisher" style="swimlane;childLayout=stackLayout;horizontal=1;startSize=30;horizontalStack=0;rounded=1;fontSize=14;fontStyle=0;strokeWidth=2;resizeParent=0;resizeLast=1;shadow=0;dashed=0;align=center;fillColor=#dae8fc;strokeColor=#6c8ebf;" vertex="1" parent="1">
          <mxGeometry x="340" y="1540" width="160" height="120" as="geometry" />
        </mxCell>
        <mxCell id="Odih9p4_4u5Rn0RxQKUg-39" value="+PublisherID:Int&#xa;+Name:String&#xa;+Location:String&#xa;" style="align=left;strokeColor=none;fillColor=none;spacingLeft=4;fontSize=12;verticalAlign=top;resizable=0;rotatable=0;part=1;" vertex="1" parent="Odih9p4_4u5Rn0RxQKUg-38">
          <mxGeometry y="30" width="160" height="90" as="geometry" />
        </mxCell>
        <mxCell id="Odih9p4_4u5Rn0RxQKUg-40" value="" style="edgeStyle=entityRelationEdgeStyle;fontSize=12;html=1;endArrow=ERone;entryX=-0.017;entryY=0.411;entryDx=0;entryDy=0;entryPerimeter=0;endFill=0;startArrow=ERoneToMany;startFill=0;" edge="1" parent="1" source="Odih9p4_4u5Rn0RxQKUg-37" target="Odih9p4_4u5Rn0RxQKUg-39">
          <mxGeometry width="100" height="100" relative="1" as="geometry">
            <mxPoint x="310" y="1300" as="sourcePoint" />
            <mxPoint x="410" y="1200" as="targetPoint" />
          </mxGeometry>
        </mxCell>
        <mxCell id="Odih9p4_4u5Rn0RxQKUg-43" value="" style="fontSize=12;html=1;endArrow=ERmandOne;startArrow=ERmandOne;startFill=0;fillColor=#f8cecc;strokeColor=#b85450;exitX=0.5;exitY=1;exitDx=0;exitDy=0;" edge="1" parent="1" source="Odih9p4_4u5Rn0RxQKUg-37" target="tFkAhirwE9vBxg9qYViA-72">
          <mxGeometry width="100" height="100" relative="1" as="geometry">
            <mxPoint x="190" y="1980" as="sourcePoint" />
            <mxPoint x="730" y="1570.48" as="targetPoint" />
          </mxGeometry>
        </mxCell>
        <mxCell id="Odih9p4_4u5Rn0RxQKUg-44" value="?" style="text;html=1;strokeColor=#b85450;fillColor=#f8cecc;align=center;verticalAlign=middle;whiteSpace=wrap;rounded=0;fontSize=17;" vertex="1" parent="1">
          <mxGeometry x="190" y="1830.48" width="40" height="20" as="geometry" />
        </mxCell>
        <mxCell id="Odih9p4_4u5Rn0RxQKUg-46" value="Book1&amp;nbsp;&lt;br&gt;Title: A&lt;br&gt;ISBN 12345-1&lt;br&gt;Version: 1" style="rounded=1;whiteSpace=wrap;html=1;fontSize=17;fillColor=#f8cecc;strokeColor=#b85450;" vertex="1" parent="1">
          <mxGeometry x="210" y="1670" width="120" height="96" as="geometry" />
        </mxCell>
        <mxCell id="Odih9p4_4u5Rn0RxQKUg-47" value="Book 2&amp;nbsp;&lt;br&gt;Title: A&lt;br&gt;ISBN 12345-2&lt;br&gt;Version: 2" style="rounded=1;whiteSpace=wrap;html=1;fontSize=17;fillColor=#f8cecc;strokeColor=#b85450;" vertex="1" parent="1">
          <mxGeometry x="50" y="1670" width="120" height="100" as="geometry" />
        </mxCell>
        <mxCell id="Odih9p4_4u5Rn0RxQKUg-49" value="Genre" style="swimlane;childLayout=stackLayout;horizontal=1;startSize=30;horizontalStack=0;rounded=1;fontSize=14;fontStyle=0;strokeWidth=2;resizeParent=0;resizeLast=1;shadow=0;dashed=0;align=center;fillColor=#dae8fc;strokeColor=#6c8ebf;" vertex="1" parent="1">
          <mxGeometry x="629" y="1702.98" width="142" height="84.52" as="geometry" />
        </mxCell>
        <mxCell id="Odih9p4_4u5Rn0RxQKUg-50" value="+GenreID:Int&#xa;+Name:String" style="align=left;strokeColor=none;fillColor=none;spacingLeft=4;fontSize=12;verticalAlign=top;resizable=0;rotatable=0;part=1;" vertex="1" parent="Odih9p4_4u5Rn0RxQKUg-49">
          <mxGeometry y="30" width="142" height="54.519999999999996" as="geometry" />
        </mxCell>
        <mxCell id="Odih9p4_4u5Rn0RxQKUg-56" style="edgeStyle=none;rounded=0;orthogonalLoop=1;jettySize=auto;html=1;exitX=0;exitY=1;exitDx=0;exitDy=0;fontSize=17;startArrow=ERmandOne;startFill=0;endArrow=ERone;endFill=0;" edge="1" parent="Odih9p4_4u5Rn0RxQKUg-49" source="Odih9p4_4u5Rn0RxQKUg-50" target="Odih9p4_4u5Rn0RxQKUg-50">
          <mxGeometry relative="1" as="geometry" />
        </mxCell>
        <mxCell id="Odih9p4_4u5Rn0RxQKUg-52" value="has" style="swimlane;childLayout=stackLayout;horizontal=1;startSize=30;horizontalStack=0;rounded=1;fontSize=14;fontStyle=0;strokeWidth=2;resizeParent=0;resizeLast=1;shadow=0;dashed=0;align=center;fillColor=#fff2cc;strokeColor=#d6b656;" vertex="1" parent="1">
          <mxGeometry x="380" y="1800" width="130" height="89.52" as="geometry" />
        </mxCell>
        <mxCell id="Odih9p4_4u5Rn0RxQKUg-53" value="+has_ID:Int&#xa;+fk_genre_id:Int&#xa;+fk_book_id:Int" style="align=left;strokeColor=none;fillColor=none;spacingLeft=4;fontSize=12;verticalAlign=top;resizable=0;rotatable=0;part=1;" vertex="1" parent="Odih9p4_4u5Rn0RxQKUg-52">
          <mxGeometry y="30" width="130" height="59.519999999999996" as="geometry" />
        </mxCell>
        <mxCell id="Odih9p4_4u5Rn0RxQKUg-54" value="" style="edgeStyle=entityRelationEdgeStyle;fontSize=12;html=1;endArrow=ERone;exitX=0;exitY=0.5;exitDx=0;exitDy=0;startArrow=ERmany;startFill=0;endFill=0;entryX=1;entryY=0;entryDx=0;entryDy=0;" edge="1" parent="1" source="Odih9p4_4u5Rn0RxQKUg-53" target="tFkAhirwE9vBxg9qYViA-72">
          <mxGeometry width="100" height="100" relative="1" as="geometry">
            <mxPoint x="350" y="1980" as="sourcePoint" />
            <mxPoint x="275" y="1985" as="targetPoint" />
          </mxGeometry>
        </mxCell>
        <mxCell id="Odih9p4_4u5Rn0RxQKUg-55" value="" style="edgeStyle=entityRelationEdgeStyle;fontSize=12;html=1;endArrow=ERone;exitX=1;exitY=0.5;exitDx=0;exitDy=0;startArrow=ERmany;startFill=0;endFill=0;entryX=0;entryY=0.5;entryDx=0;entryDy=0;" edge="1" parent="1" source="Odih9p4_4u5Rn0RxQKUg-53" target="Odih9p4_4u5Rn0RxQKUg-50">
          <mxGeometry width="100" height="100" relative="1" as="geometry">
            <mxPoint x="726" y="1870" as="sourcePoint" />
            <mxPoint x="651" y="1875" as="targetPoint" />
          </mxGeometry>
        </mxCell>
        <mxCell id="Odih9p4_4u5Rn0RxQKUg-57" value="writes_in" style="swimlane;childLayout=stackLayout;horizontal=1;startSize=30;horizontalStack=0;rounded=1;fontSize=14;fontStyle=0;strokeWidth=2;resizeParent=0;resizeLast=1;shadow=0;dashed=0;align=center;fillColor=#fff2cc;strokeColor=#d6b656;" vertex="1" parent="1">
          <mxGeometry x="840" y="1830" width="150" height="90.48" as="geometry" />
        </mxCell>
        <mxCell id="Odih9p4_4u5Rn0RxQKUg-58" value="+writes_in_ID:Int&#xa;+fk_author_id:Int&#xa;+fk_genre_id:Int" style="align=left;strokeColor=none;fillColor=none;spacingLeft=4;fontSize=12;verticalAlign=top;resizable=0;rotatable=0;part=1;" vertex="1" parent="Odih9p4_4u5Rn0RxQKUg-57">
          <mxGeometry y="30" width="150" height="60.480000000000004" as="geometry" />
        </mxCell>
        <mxCell id="Odih9p4_4u5Rn0RxQKUg-59" value="" style="edgeStyle=orthogonalEdgeStyle;fontSize=12;html=1;endArrow=ERone;entryX=0.5;entryY=1;entryDx=0;entryDy=0;endFill=0;startArrow=ERoneToMany;startFill=0;exitX=0;exitY=0.25;exitDx=0;exitDy=0;" edge="1" parent="1" source="Odih9p4_4u5Rn0RxQKUg-58" target="Odih9p4_4u5Rn0RxQKUg-50">
          <mxGeometry width="100" height="100" relative="1" as="geometry">
            <mxPoint x="510" y="2030" as="sourcePoint" />
            <mxPoint x="593.28" y="2026.9899999999998" as="targetPoint" />
            <Array as="points">
              <mxPoint x="700" y="1875" />
            </Array>
          </mxGeometry>
        </mxCell>
        <mxCell id="Odih9p4_4u5Rn0RxQKUg-60" value="" style="edgeStyle=orthogonalEdgeStyle;fontSize=12;html=1;endArrow=ERone;entryX=0.5;entryY=0;entryDx=0;entryDy=0;endFill=0;startArrow=ERoneToMany;startFill=0;exitX=0;exitY=0.25;exitDx=0;exitDy=0;" edge="1" parent="1" source="Odih9p4_4u5Rn0RxQKUg-58" target="tFkAhirwE9vBxg9qYViA-76">
          <mxGeometry width="100" height="100" relative="1" as="geometry">
            <mxPoint x="850" y="1885.12" as="sourcePoint" />
            <mxPoint x="710" y="1797.5" as="targetPoint" />
          </mxGeometry>
        </mxCell>
        <mxCell id="Odih9p4_4u5Rn0RxQKUg-63" value="User" style="swimlane;childLayout=stackLayout;horizontal=1;startSize=30;horizontalStack=0;rounded=1;fontSize=14;fontStyle=0;strokeWidth=2;resizeParent=0;resizeLast=1;shadow=0;dashed=0;align=center;fillColor=#dae8fc;strokeColor=#6c8ebf;" vertex="1" parent="1">
          <mxGeometry x="420" y="2145" width="160" height="120" as="geometry" />
        </mxCell>
        <mxCell id="Odih9p4_4u5Rn0RxQKUg-64" value="+UserID:Int&#xa;" style="align=left;strokeColor=none;fillColor=none;spacingLeft=4;fontSize=12;verticalAlign=top;resizable=0;rotatable=0;part=1;" vertex="1" parent="Odih9p4_4u5Rn0RxQKUg-63">
          <mxGeometry y="30" width="160" height="90" as="geometry" />
        </mxCell>
        <mxCell id="Odih9p4_4u5Rn0RxQKUg-65" value="borrow" style="swimlane;childLayout=stackLayout;horizontal=1;startSize=30;horizontalStack=0;rounded=1;fontSize=14;fontStyle=0;strokeWidth=2;resizeParent=0;resizeLast=1;shadow=0;dashed=0;align=center;fillColor=#fff2cc;strokeColor=#d6b656;" vertex="1" parent="1">
          <mxGeometry x="105" y="2140" width="162.5" height="130" as="geometry" />
        </mxCell>
        <mxCell id="Odih9p4_4u5Rn0RxQKUg-66" value="+borrow_ID:Int&#xa;+fk_user_id:Int&#xa;+fk_book_id:Int&#xa;+start_of_borrow:Date&#xa;+end_of_borrow:Date&#xa;+available:Boolean" style="align=left;strokeColor=none;fillColor=none;spacingLeft=4;fontSize=12;verticalAlign=top;resizable=0;rotatable=0;part=1;" vertex="1" parent="Odih9p4_4u5Rn0RxQKUg-65">
          <mxGeometry y="30" width="162.5" height="100" as="geometry" />
        </mxCell>
        <mxCell id="Odih9p4_4u5Rn0RxQKUg-67" value="" style="edgeStyle=entityRelationEdgeStyle;fontSize=12;html=1;endArrow=ERzeroToMany;endFill=1;entryX=1;entryY=0.5;entryDx=0;entryDy=0;exitX=0;exitY=0.5;exitDx=0;exitDy=0;startArrow=ERzeroToOne;startFill=1;" edge="1" parent="1" source="Odih9p4_4u5Rn0RxQKUg-64" target="Odih9p4_4u5Rn0RxQKUg-66">
          <mxGeometry width="100" height="100" relative="1" as="geometry">
            <mxPoint x="400" y="1910" as="sourcePoint" />
            <mxPoint x="340" y="2210" as="targetPoint" />
          </mxGeometry>
        </mxCell>
        <mxCell id="Odih9p4_4u5Rn0RxQKUg-70" value="" style="fontSize=12;html=1;endArrow=ERzeroToMany;endFill=1;entryX=0.5;entryY=0;entryDx=0;entryDy=0;exitX=0.5;exitY=1;exitDx=0;exitDy=0;startArrow=ERzeroToOne;startFill=1;" edge="1" parent="1" source="tFkAhirwE9vBxg9qYViA-73" target="Odih9p4_4u5Rn0RxQKUg-65">
          <mxGeometry width="100" height="100" relative="1" as="geometry">
            <mxPoint x="430" y="2225" as="sourcePoint" />
            <mxPoint x="285" y="2222.5" as="targetPoint" />
          </mxGeometry>
        </mxCell>
        <mxCell id="Odih9p4_4u5Rn0RxQKUg-72" value="Table" style="shape=table;startSize=30;container=1;collapsible=1;childLayout=tableLayout;fixedRows=1;rowLines=0;fontStyle=1;align=center;resizeLast=1;fontSize=17;fillColor=none;" vertex="1" parent="1">
          <mxGeometry x="50" y="2540" width="180" height="160" as="geometry" />
        </mxCell>
        <mxCell id="Odih9p4_4u5Rn0RxQKUg-73" value="" style="shape=partialRectangle;collapsible=0;dropTarget=0;pointerEvents=0;fillColor=none;top=0;left=0;bottom=1;right=0;points=[[0,0.5],[1,0.5]];portConstraint=eastwest;" vertex="1" parent="Odih9p4_4u5Rn0RxQKUg-72">
          <mxGeometry y="30" width="180" height="30" as="geometry" />
        </mxCell>
        <mxCell id="Odih9p4_4u5Rn0RxQKUg-74" value="PK" style="shape=partialRectangle;connectable=0;fillColor=none;top=0;left=0;bottom=0;right=0;fontStyle=1;overflow=hidden;" vertex="1" parent="Odih9p4_4u5Rn0RxQKUg-73">
          <mxGeometry width="30" height="30" as="geometry" />
        </mxCell>
        <mxCell id="Odih9p4_4u5Rn0RxQKUg-75" value="UniqueID" style="shape=partialRectangle;connectable=0;fillColor=none;top=0;left=0;bottom=0;right=0;align=left;spacingLeft=6;fontStyle=5;overflow=hidden;" vertex="1" parent="Odih9p4_4u5Rn0RxQKUg-73">
          <mxGeometry x="30" width="150" height="30" as="geometry" />
        </mxCell>
        <mxCell id="Odih9p4_4u5Rn0RxQKUg-76" value="" style="shape=partialRectangle;collapsible=0;dropTarget=0;pointerEvents=0;fillColor=none;top=0;left=0;bottom=0;right=0;points=[[0,0.5],[1,0.5]];portConstraint=eastwest;" vertex="1" parent="Odih9p4_4u5Rn0RxQKUg-72">
          <mxGeometry y="60" width="180" height="30" as="geometry" />
        </mxCell>
        <mxCell id="Odih9p4_4u5Rn0RxQKUg-77" value="" style="shape=partialRectangle;connectable=0;fillColor=none;top=0;left=0;bottom=0;right=0;editable=1;overflow=hidden;" vertex="1" parent="Odih9p4_4u5Rn0RxQKUg-76">
          <mxGeometry width="30" height="30" as="geometry" />
        </mxCell>
        <mxCell id="Odih9p4_4u5Rn0RxQKUg-78" value="Row 1" style="shape=partialRectangle;connectable=0;fillColor=none;top=0;left=0;bottom=0;right=0;align=left;spacingLeft=6;overflow=hidden;" vertex="1" parent="Odih9p4_4u5Rn0RxQKUg-76">
          <mxGeometry x="30" width="150" height="30" as="geometry" />
        </mxCell>
        <mxCell id="Odih9p4_4u5Rn0RxQKUg-79" value="" style="shape=partialRectangle;collapsible=0;dropTarget=0;pointerEvents=0;fillColor=none;top=0;left=0;bottom=0;right=0;points=[[0,0.5],[1,0.5]];portConstraint=eastwest;" vertex="1" parent="Odih9p4_4u5Rn0RxQKUg-72">
          <mxGeometry y="90" width="180" height="30" as="geometry" />
        </mxCell>
        <mxCell id="Odih9p4_4u5Rn0RxQKUg-80" value="" style="shape=partialRectangle;connectable=0;fillColor=none;top=0;left=0;bottom=0;right=0;editable=1;overflow=hidden;" vertex="1" parent="Odih9p4_4u5Rn0RxQKUg-79">
          <mxGeometry width="30" height="30" as="geometry" />
        </mxCell>
        <mxCell id="Odih9p4_4u5Rn0RxQKUg-81" value="Row 2" style="shape=partialRectangle;connectable=0;fillColor=none;top=0;left=0;bottom=0;right=0;align=left;spacingLeft=6;overflow=hidden;" vertex="1" parent="Odih9p4_4u5Rn0RxQKUg-79">
          <mxGeometry x="30" width="150" height="30" as="geometry" />
        </mxCell>
        <mxCell id="Odih9p4_4u5Rn0RxQKUg-82" value="" style="shape=partialRectangle;collapsible=0;dropTarget=0;pointerEvents=0;fillColor=none;top=0;left=0;bottom=0;right=0;points=[[0,0.5],[1,0.5]];portConstraint=eastwest;" vertex="1" parent="Odih9p4_4u5Rn0RxQKUg-72">
          <mxGeometry y="120" width="180" height="30" as="geometry" />
        </mxCell>
        <mxCell id="Odih9p4_4u5Rn0RxQKUg-83" value="" style="shape=partialRectangle;connectable=0;fillColor=none;top=0;left=0;bottom=0;right=0;editable=1;overflow=hidden;" vertex="1" parent="Odih9p4_4u5Rn0RxQKUg-82">
          <mxGeometry width="30" height="30" as="geometry" />
        </mxCell>
        <mxCell id="Odih9p4_4u5Rn0RxQKUg-84" value="Row 3" style="shape=partialRectangle;connectable=0;fillColor=none;top=0;left=0;bottom=0;right=0;align=left;spacingLeft=6;overflow=hidden;" vertex="1" parent="Odih9p4_4u5Rn0RxQKUg-82">
          <mxGeometry x="30" width="150" height="30" as="geometry" />
        </mxCell>
        <mxCell id="Odih9p4_4u5Rn0RxQKUg-85" value="4 - Refine &amp;amp; Normalize the Design" style="text;html=1;strokeColor=#82b366;fillColor=#d5e8d4;align=center;verticalAlign=middle;whiteSpace=wrap;rounded=0;fontSize=17;" vertex="1" parent="1">
          <mxGeometry x="30" y="2380" width="1110" height="60" as="geometry" />
        </mxCell>
        <mxCell id="Odih9p4_4u5Rn0RxQKUg-94" value="Person" style="swimlane;childLayout=stackLayout;horizontal=1;startSize=30;horizontalStack=0;rounded=1;fontSize=14;fontStyle=0;strokeWidth=2;resizeParent=0;resizeLast=1;shadow=0;dashed=0;align=center;fillColor=#dae8fc;strokeColor=#6c8ebf;" vertex="1" parent="1">
          <mxGeometry x="710" y="2150" width="160" height="120" as="geometry" />
        </mxCell>
        <mxCell id="Odih9p4_4u5Rn0RxQKUg-95" value="+PersonID:Int&#xa;+First_Name:String&#xa;+Last_Name:String&#xa;+Location:String&#xa;" style="align=left;strokeColor=none;fillColor=none;spacingLeft=4;fontSize=12;verticalAlign=top;resizable=0;rotatable=0;part=1;" vertex="1" parent="Odih9p4_4u5Rn0RxQKUg-94">
          <mxGeometry y="30" width="160" height="90" as="geometry" />
        </mxCell>
        <mxCell id="Odih9p4_4u5Rn0RxQKUg-96" value="" style="edgeStyle=orthogonalEdgeStyle;fontSize=12;html=1;endArrow=ERzeroToOne;startArrow=ERmandOne;exitX=0.5;exitY=0;exitDx=0;exitDy=0;" edge="1" parent="1" source="Odih9p4_4u5Rn0RxQKUg-94" target="tFkAhirwE9vBxg9qYViA-77">
          <mxGeometry width="100" height="100" relative="1" as="geometry">
            <mxPoint x="610" y="1940" as="sourcePoint" />
            <mxPoint x="710" y="1840" as="targetPoint" />
          </mxGeometry>
        </mxCell>
        <mxCell id="Odih9p4_4u5Rn0RxQKUg-97" value="" style="edgeStyle=orthogonalEdgeStyle;fontSize=12;html=1;endArrow=ERzeroToOne;startArrow=ERmandOne;exitX=-0.006;exitY=0.433;exitDx=0;exitDy=0;exitPerimeter=0;entryX=1;entryY=0.5;entryDx=0;entryDy=0;" edge="1" parent="1" source="Odih9p4_4u5Rn0RxQKUg-95" target="Odih9p4_4u5Rn0RxQKUg-64">
          <mxGeometry width="100" height="100" relative="1" as="geometry">
            <mxPoint x="700" y="2220" as="sourcePoint" />
            <mxPoint x="601" y="2150" as="targetPoint" />
          </mxGeometry>
        </mxCell>
      </root>
    </mxGraphModel>
  </diagram>
</mxfile>
